<?xml version="1.0" encoding="UTF-8"?>
<svg version="1.1" xmlns="http://www.w3.org/2000/svg" width="2000" height="2000">
<path d="M440 0 L1560 0 A440 440 0 0 1 2000 440 L2000 1560 A440 440 0 0 1 1560 2000 L440 2000 A440 440 0 0 1 0 1560 L0 440 A440 440 0 0 1 440 0 Z" fill="#FFFFFF"/>
<path d="M0 0 C1.13 0.12 2.25 0.25 3.41 0.37 C100.49 11.22 190.97 51.7 265.06 115 C265.6 115.46 266.15 115.92 266.7 116.4 C275.52 123.97 284 131.83 292.2 140.07 C293.69 141.57 295.19 143.06 296.7 144.56 C302.01 149.87 307.14 155.27 312 161 C312.95 162.08 313.9 163.17 314.85 164.25 C322.09 172.54 328.86 181.13 335.45 189.93 C336.9 191.86 338.35 193.79 339.81 195.71 C352.71 212.89 363.74 231.15 374 250 C374.26 250.47 374.26 250.47 375.56 252.86 C413.06 321.97 432.3 400.68 432.19 479.25 C432.19 479.66 432.19 479.66 432.19 481.74 C432.06 546.32 419.17 611.06 393.19 670.28 C392.05 672.9 390.92 675.53 389.79 678.16 C384.68 689.97 378.72 701.24 372.42 712.47 C371.12 714.79 369.83 717.12 368.55 719.45 C363.72 728.21 358.56 736.68 353 745 C352.59 745.62 352.17 746.25 351.74 746.89 C341.97 761.52 331.33 775.53 320 789 C319.55 789.53 319.11 790.06 318.65 790.61 C308.79 802.31 298.54 813.53 287.75 824.38 C287.1 825.03 286.45 825.68 285.78 826.36 C281.92 830.2 277.95 833.86 273.83 837.41 C271.46 839.47 269.17 841.61 266.88 843.75 C261.07 849.04 254.96 853.88 248.73 858.67 C247.11 859.92 245.5 861.19 243.89 862.46 C174.81 916.7 90.66 949.23 3.75 959.25 C3.03 959.33 2.31 959.42 1.56 959.5 C-15.19 961.41 -31.84 962.21 -48.69 962.19 C-49.58 962.19 -50.48 962.19 -51.4 962.19 C-145.75 962.01 -238.14 934.18 -352 856 C-352.97 855.23 -353.94 854.45 -354.94 853.66 C-360.54 849.14 -365.92 844.44 -371.2 839.55 C-373.31 837.63 -375.44 835.77 -377.61 833.91 C-382.64 829.52 -387.34 824.81 -392.05 820.08 C-393.56 818.57 -395.08 817.05 -396.6 815.54 C-401.94 810.2 -407.1 804.75 -412 799 C-413.03 797.83 -414.07 796.66 -415.11 795.5 C-422.33 787.33 -429.05 778.91 -435.47 770.1 C-437.04 767.94 -438.63 765.8 -440.22 763.66 C-448.01 753.09 -455.16 742.21 -462 731 C-462.21 730.66 -462.21 730.66 -463.27 728.95 C-500.21 668.86 -521.76 600.8 -530 531 C-530.13 529.89 -530.27 528.77 -530.4 527.62 C-534 495.43 -533.82 461.16 -530 429 C-529.88 427.91 -529.75 426.81 -529.63 425.69 C-519.42 337.44 -485.01 252.8 -430 183 C-429.1 181.83 -428.19 180.66 -427.29 179.48 C-422.27 172.97 -417.1 166.72 -411.48 160.7 C-409.62 158.68 -407.84 156.64 -406.06 154.55 C-401.01 148.76 -395.55 143.36 -390.11 137.93 C-388.26 136.08 -386.42 134.21 -384.58 132.35 C-378.41 126.16 -372.21 120.27 -365.33 114.86 C-363.01 113.01 -360.81 111.07 -358.62 109.06 C-353.01 104.03 -347.04 99.5 -341 95 C-340.33 94.5 -339.67 94.01 -338.98 93.5 C-278.55 48.71 -209.12 18.07 -135 5 C-133.99 4.82 -132.98 4.64 -131.94 4.45 C-88.79 -3.11 -43.57 -5.1 0 0 Z " fill="#4C4C4C" transform="translate(1050,520)"/>
<path d="M0 0 C0.83 -0 1.67 -0 2.53 -0 C43.25 0.05 85.94 7.74 122.26 26.89 C124.24 27.89 126.26 28.81 128.29 29.68 C148.06 38.18 166.35 50.65 182.94 64.25 C183.5 64.71 184.06 65.17 184.64 65.65 C199.31 77.77 213.39 91.09 224.94 106.25 C225.94 107.51 226.94 108.77 227.94 110.03 C264.89 156.87 288.55 217.26 289.94 277.25 C289.96 278.09 289.98 278.94 290 279.81 C290.77 316.62 285.69 353.59 272.94 388.25 C272.63 389.07 272.33 389.9 272.02 390.75 C271.04 393.27 270 395.76 268.94 398.25 C268.79 398.61 268.79 398.61 268.05 400.41 C267.03 402.88 265.98 405.35 264.94 407.81 C264.61 408.62 264.27 409.43 263.93 410.27 C263.6 411.03 263.28 411.79 262.94 412.57 C262.65 413.25 262.36 413.94 262.06 414.64 C260.94 416.25 260.94 416.25 259.19 417.08 C256.13 417.31 253.86 416.57 250.94 415.66 C249.75 415.29 248.57 414.92 247.34 414.55 C246.06 414.14 244.78 413.72 243.5 413.31 C242.85 413.11 242.2 412.9 241.53 412.69 C184.17 394.52 130.84 365.88 83.94 328.25 C82.97 327.48 82 326.7 81 325.91 C75.4 321.39 70.02 316.69 64.74 311.8 C62.63 309.88 60.5 308.02 58.33 306.16 C53.3 301.77 48.6 297.06 43.89 292.33 C42.38 290.82 40.86 289.3 39.34 287.79 C33.99 282.45 28.84 277 23.94 271.25 C22.9 270.08 21.87 268.91 20.83 267.75 C13.61 259.58 6.89 251.16 0.47 242.35 C-1.1 240.19 -2.69 238.05 -4.28 235.91 C-12.07 225.34 -19.22 214.46 -26.06 203.25 C-26.48 202.57 -26.9 201.89 -27.33 201.2 C-57.77 151.7 -92.76 79.69 -91.19 20 C-91.17 19.09 -91.15 18.17 -91.13 17.23 C-91.11 16.58 -91.09 15.92 -91.06 15.25 C-84.68 12.21 -78.09 10.52 -71.25 8.81 C-70.02 8.51 -68.8 8.2 -67.54 7.89 C-45.22 2.48 -22.92 0.02 0 0 Z " fill="#333333" transform="translate(614.0625,1047.75)"/>
<path d="M0 0 C4.19 1.45 7.34 4.69 10.62 7.56 C11.19 8.05 11.76 8.54 12.34 9.04 C14.24 10.68 16.12 12.34 18 14 C18.75 14.66 19.5 15.32 20.28 16 C26.46 21.49 32.37 27.21 38.2 33.07 C39.69 34.57 41.19 36.06 42.7 37.56 C48.01 42.87 53.14 48.27 58 54 C58.95 55.08 59.9 56.17 60.85 57.25 C68.09 65.54 74.86 74.13 81.45 82.93 C82.9 84.86 84.35 86.79 85.81 88.71 C98.71 105.89 109.74 124.15 120 143 C120.51 143.94 121.03 144.88 121.56 145.86 C159.06 214.97 178.3 293.68 178.19 372.25 C178.19 373.07 178.19 373.89 178.19 374.74 C178.13 404.47 175.04 433.7 170 463 C165.9 464.37 162.75 463.23 158.69 462.19 C157.83 461.97 156.96 461.75 156.08 461.52 C81.93 441.94 16.46 395.32 -22.71 328.78 C-23.82 326.86 -24.91 324.93 -26 323 C-26.19 322.66 -26.19 322.66 -27.18 320.93 C-51.29 278.28 -63.22 229.76 -63.25 180.94 C-63.25 180.06 -63.25 179.17 -63.25 178.27 C-63.18 116.05 -43.09 48.9 -2 1 C-1.34 0.67 -0.68 0.34 0 0 Z " fill="#333333" transform="translate(1304,627)"/>
<path d="M0 0 C0 0.66 0 1.32 0 2 C0.7 2.08 1.39 2.16 2.11 2.25 C11.77 4.76 20.98 14.28 28 21 C28.76 21.7 29.52 22.39 30.3 23.11 C51.17 42.86 63.15 72.92 64.35 101.31 C64.88 124.76 60.41 146.37 49 167 C48.34 167 47.68 167 47 167 C46.91 167.71 46.83 168.42 46.74 169.15 C42.28 186.29 19.38 203.07 5 211.88 C-1.74 215.59 -8.78 218.38 -16 221 C-17.04 221.38 -18.07 221.76 -19.14 222.16 C-47.47 231.75 -80.18 229.99 -107.27 217.2 C-136.67 202.63 -159.8 178.26 -170.61 147 C-180.84 115.28 -179.04 81.83 -164.11 51.81 C-156.51 37.37 -145.71 24.23 -133 14 C-132.13 13.29 -131.26 12.58 -130.36 11.85 C-93.45 -17.07 -41.64 -21.32 0 0 Z " fill="#333333" transform="translate(984,724)"/>
<path d="M0 0 C11.25 8.4 17.43 19.44 20.35 33.13 C20.76 40.13 20.43 45.94 18.6 52.69 C18.42 53.4 18.24 54.11 18.05 54.84 C16.71 59.97 16.71 59.97 15.54 62.32 C14.88 62.32 14.22 62.32 13.54 62.32 C13.5 62.68 13.5 62.68 13.29 64.51 C11.44 71.47 4.57 76.98 -1.34 80.69 C-14.71 88.06 -28.58 90.57 -43.44 86.42 C-55.74 81.92 -65.31 73.86 -71.46 62.32 C-77.02 48.41 -78.17 35.71 -73.46 21.32 C-68.49 9.81 -58.86 0.55 -47.51 -4.54 C-31.1 -10.72 -14.77 -10.1 0 0 Z " fill="#333333" transform="translate(1172.4609375,1152.68359375)"/>
</svg>